<mxfile host="app.diagrams.net" modified="2021-09-01T15:53:49.752Z" agent="5.0 (Windows NT 10.0; Win64; x64) AppleWebKit/537.36 (KHTML, like Gecko) Chrome/92.0.4515.159 Safari/537.36" etag="3vmqc5MOtU6qV_xs3dvI" version="15.0.4" type="github">
  <diagram id="prtHgNgQTEPvFCAcTncT" name="Page-1">
    <mxGraphModel dx="1038" dy="579" grid="1" gridSize="10" guides="1" tooltips="1" connect="1" arrows="1" fold="1" page="1" pageScale="1" pageWidth="827" pageHeight="1169" math="0" shadow="0">
      <root>
        <mxCell id="0" />
        <mxCell id="1" parent="0" />
        <mxCell id="fjFi9kEiHQ8eRMUlzpI0-6" value="&lt;font style=&quot;vertical-align: inherit ; font-size: 14px&quot;&gt;&lt;font style=&quot;vertical-align: inherit ; font-size: 14px&quot;&gt;&lt;font style=&quot;vertical-align: inherit ; font-size: 14px&quot;&gt;&lt;font style=&quot;vertical-align: inherit ; font-size: 14px&quot;&gt;执行性强&lt;br&gt;可落地&lt;br&gt;&lt;/font&gt;&lt;/font&gt;&lt;/font&gt;&lt;/font&gt;" style="rounded=0;whiteSpace=wrap;html=1;fontSize=14;fontStyle=0;fillColor=#f9f7ed;strokeColor=#36393d;" vertex="1" parent="1">
          <mxGeometry x="440" y="360" width="120" height="60" as="geometry" />
        </mxCell>
        <mxCell id="fjFi9kEiHQ8eRMUlzpI0-12" value="&lt;font style=&quot;vertical-align: inherit; font-size: 14px;&quot;&gt;&lt;font style=&quot;vertical-align: inherit; font-size: 14px;&quot;&gt;赛事定制&lt;/font&gt;&lt;/font&gt;" style="rounded=0;whiteSpace=wrap;html=1;fontSize=14;fontStyle=0;fillColor=#f9f7ed;strokeColor=#36393d;" vertex="1" parent="1">
          <mxGeometry x="200" y="360" width="240" height="60" as="geometry" />
        </mxCell>
        <mxCell id="fjFi9kEiHQ8eRMUlzpI0-13" value="&lt;font style=&quot;vertical-align: inherit; font-size: 14px;&quot;&gt;&lt;font style=&quot;vertical-align: inherit; font-size: 14px;&quot;&gt;&lt;font style=&quot;vertical-align: inherit; font-size: 14px;&quot;&gt;&lt;font style=&quot;vertical-align: inherit; font-size: 14px;&quot;&gt;题目定制&lt;/font&gt;&lt;/font&gt;&lt;/font&gt;&lt;/font&gt;" style="rounded=0;whiteSpace=wrap;html=1;fontSize=14;fontStyle=0;fillColor=#f9f7ed;strokeColor=#36393d;" vertex="1" parent="1">
          <mxGeometry x="200" y="300" width="240" height="60" as="geometry" />
        </mxCell>
        <mxCell id="fjFi9kEiHQ8eRMUlzpI0-20" value="&lt;font style=&quot;vertical-align: inherit ; font-size: 14px&quot;&gt;&lt;font style=&quot;vertical-align: inherit ; font-size: 14px&quot;&gt;&lt;font style=&quot;vertical-align: inherit ; font-size: 14px&quot;&gt;&lt;font style=&quot;vertical-align: inherit ; font-size: 14px&quot;&gt;&lt;font style=&quot;vertical-align: inherit&quot;&gt;&lt;font style=&quot;vertical-align: inherit&quot;&gt;系统成熟&lt;br&gt;流程完善&lt;/font&gt;&lt;/font&gt;&lt;/font&gt;&lt;/font&gt;&lt;/font&gt;&lt;/font&gt;" style="rounded=0;whiteSpace=wrap;html=1;fontSize=14;fontStyle=0;fillColor=#f9f7ed;strokeColor=#36393d;" vertex="1" parent="1">
          <mxGeometry x="440" y="420" width="120" height="60" as="geometry" />
        </mxCell>
        <mxCell id="fjFi9kEiHQ8eRMUlzpI0-22" value="&lt;font style=&quot;vertical-align: inherit; font-size: 14px;&quot;&gt;&lt;font style=&quot;vertical-align: inherit; font-size: 14px;&quot;&gt;公司资质&lt;/font&gt;&lt;/font&gt;" style="rounded=0;whiteSpace=wrap;html=1;fontSize=14;fontStyle=0;fillColor=#f9f7ed;strokeColor=#36393d;" vertex="1" parent="1">
          <mxGeometry x="200" y="420" width="120" height="60" as="geometry" />
        </mxCell>
        <mxCell id="fjFi9kEiHQ8eRMUlzpI0-23" value="&lt;font style=&quot;vertical-align: inherit; font-size: 14px;&quot;&gt;&lt;font style=&quot;vertical-align: inherit; font-size: 14px;&quot;&gt;&lt;font style=&quot;vertical-align: inherit; font-size: 14px;&quot;&gt;&lt;font style=&quot;vertical-align: inherit; font-size: 14px;&quot;&gt;团队成员&lt;/font&gt;&lt;/font&gt;&lt;/font&gt;&lt;/font&gt;" style="rounded=0;whiteSpace=wrap;html=1;fontSize=14;fontStyle=0;fillColor=#f9f7ed;strokeColor=#36393d;" vertex="1" parent="1">
          <mxGeometry x="320" y="420" width="120" height="60" as="geometry" />
        </mxCell>
        <mxCell id="fjFi9kEiHQ8eRMUlzpI0-64" value="&lt;font style=&quot;vertical-align: inherit ; font-size: 14px&quot;&gt;&lt;font style=&quot;vertical-align: inherit ; font-size: 14px&quot;&gt;&lt;font style=&quot;vertical-align: inherit ; font-size: 14px&quot;&gt;&lt;font style=&quot;vertical-align: inherit ; font-size: 14px&quot;&gt;经验丰富&lt;/font&gt;&lt;/font&gt;&lt;/font&gt;&lt;/font&gt;" style="rounded=0;whiteSpace=wrap;html=1;fontSize=14;fontStyle=0;fillColor=#f9f7ed;strokeColor=#36393d;" vertex="1" parent="1">
          <mxGeometry x="440" y="300" width="120" height="60" as="geometry" />
        </mxCell>
        <mxCell id="fjFi9kEiHQ8eRMUlzpI0-65" value="优势框架图" style="rounded=1;whiteSpace=wrap;html=1;fontSize=14;fontStyle=0;fillColor=#f9f7ed;strokeColor=#36393d;" vertex="1" parent="1">
          <mxGeometry x="200" y="270" width="360" height="30" as="geometry" />
        </mxCell>
      </root>
    </mxGraphModel>
  </diagram>
</mxfile>
